<svg xmlns="http://www.w3.org/2000/svg" width="40" height="40" viewBox="0 0 40 40">
    <defs>
        <linearGradient id="ancvuoo0ca" x1="0%" x2="100%" y1="50%" y2="50%">
            <stop offset="0%" stop-color="#8F389D"/>
            <stop offset="100%" stop-color="#7653C5"/>
        </linearGradient>
    </defs>
    <g fill="none" fill-rule="evenodd">
        <g>
            <g>
                <g>
                    <g transform="translate(-1811.000000, -32.000000) translate(1745.000000, 31.000000) translate(66.000000, 1.000000)">
                        <circle cx="20" cy="20" r="20" fill="#EDEDED"/>
                        <g fill="url(#ancvuoo0ca)" fill-rule="nonzero" transform="translate(12.000000, 13.000000)">
                            <path d="M15.422 0H1.642C1.206-.002.786.169.478.476c-.309.308-.48.726-.477 1.16v10.396c-.018.444.147.877.457 1.198.31.32.737.502 1.184.502h2.821v2.353c-.005.245.09.48.263.654.174.172.41.267.656.262.24-.018.47-.11.656-.262l3.019-3.007h6.299c.436.003.855-.168 1.164-.475.308-.307.48-.725.476-1.16V1.636c.03-.431-.124-.854-.424-1.166-.3-.31-.718-.481-1.15-.47zm-4.856 9.677H3.479c-.471 0-.853-.38-.853-.85s.382-.85.853-.85h7.087c.47 0 .853.38.853.85s-.382.85-.853.85zm3.018-3.923H3.48c-.228.008-.45-.08-.611-.24-.162-.162-.25-.382-.242-.61.007-.466.385-.843.853-.85h10.105c.468.007.846.384.853.85.008.228-.08.448-.241.61-.162.16-.383.248-.612.24z"/>
                        </g>
                    </g>
                </g>
            </g>
        </g>
    </g>
</svg>
