<?xml version="1.0" standalone="no"?><!DOCTYPE svg PUBLIC "-//W3C//DTD SVG 1.1//EN" "http://www.w3.org/Graphics/SVG/1.1/DTD/svg11.dtd"><svg class="icon" width="200px" height="200.00px" viewBox="0 0 1024 1024" version="1.1" xmlns="http://www.w3.org/2000/svg"><path d="M710 388.8L511.2 884.6 985 388.8H710z m-672.8 0L511 884.6 312.2 388.8h-275z m0 0" fill="#F1B900" /><path d="M312.2 388.8L511 884.6l199-495.8z m0 0h-275l198.8-247h275z m672.8 0H710l-198.8-247h275z" fill="#F7D566" /><path d="M709.8 388.8H312.2L511 141.6l198.8 247.2z m0 0" fill="#FAE6A3" /><path d="M236 141.8L312.2 389 511 141.8H236z m550 0L709.8 389 511 141.8h275z m0 0" fill="#F4DB71" /></svg>