<?xml version="1.0" standalone="no"?><!DOCTYPE svg PUBLIC "-//W3C//DTD SVG 1.1//EN" "http://www.w3.org/Graphics/SVG/1.1/DTD/svg11.dtd"><svg class="icon" width="200px" height="200.00px" viewBox="0 0 1024 1024" version="1.1" xmlns="http://www.w3.org/2000/svg"><path d="M896 0C966.582857 0 1024 57.417143 1024 128v512c0 70.582857-57.417143 128-128 128h-42.715429v128c0 70.582857-57.344 128-128 128H128C57.417143 1024 0 966.582857 0 896V298.642286c0-70.582857 57.417143-128 128-128h149.284571V128c0-70.582857 57.490286-128 128-128h490.715429zM725.357714 256H128a42.715429 42.715429 0 0 0-42.642286 42.642286v597.357714c0 23.552 19.090286 42.642286 42.642286 42.642286h597.357714a42.715429 42.715429 0 0 0 42.642286-42.642286V298.642286a42.715429 42.715429 0 0 0-42.642286-42.642286zM578.706286 662.308571a36.571429 36.571429 0 0 1 0 73.142858h-292.571429a36.571429 36.571429 0 1 1 0-73.142858h292.571429z m317.293714-576.950857H405.357714a42.715429 42.715429 0 0 0-42.715428 42.642286v42.642286h362.715428c70.582857 0 128 57.417143 128 128l-0.073143 384h42.715429a42.715429 42.715429 0 0 0 42.642286-42.642286v-512a42.715429 42.715429 0 0 0-42.642286-42.642286zM578.706286 442.88a36.571429 36.571429 0 0 1 0 73.142857h-292.571429a36.571429 36.571429 0 1 1 0-73.142857h292.571429z" fill="#6452b7" /></svg>